<?xml version="1.0" encoding="utf-8"?>
<!-- Generator: Adobe Illustrator 24.1.0, SVG Export Plug-In . SVG Version: 6.00 Build 0)  -->
<svg version="1.1" xmlns="http://www.w3.org/2000/svg" xmlns:xlink="http://www.w3.org/1999/xlink" x="0px" y="0px"
	 viewBox="0 0 278.18 263.54" style="enable-background:new 0 0 278.18 263.54;" xml:space="preserve">
<style type="text/css">
	.Estilo_x0020_gráfico{fill:#FFFFFF;stroke:#000000;stroke-width:3;stroke-miterlimit:10;}
	.st0{fill:#FFFFFF;}
	.st1{fill:none;stroke:#000000;stroke-width:5;stroke-miterlimit:10;}
	.st2{display:none;}
	.st3{display:inline;fill:#FFFFFF;stroke:#000000;stroke-width:3;stroke-miterlimit:10;}
</style>
<g id="Capa_1">
	<g>
		<path d="M88.2,105.77c-3.75,0-7.37,0-10.99,0c-5.28,0-10.56,0.01-15.85-0.01c-2.65-0.01-3.98-1.15-3.99-3.32
			c-0.01-2.14,1.35-3.29,4.02-3.29c8.12-0.01,16.24,0,24.36,0c0.78,0,1.56,0,2.57,0c0-4.71,0-9.24,0-13.77
			c-0.01-4.48,0.76-5.25,5.3-5.25c4.55,0,9.1,0,13.97,0c0-0.91,0-1.67,0-2.43c-0.01-7.92-0.04-15.85,0.02-23.77
			c0.01-1.13,0.15-2.55,0.83-3.3c0.7-0.77,2.25-1.38,3.2-1.15c0.96,0.23,1.77,1.51,2.42,2.48c0.31,0.47,0.13,1.28,0.13,1.94
			c0.01,7.92,0.01,15.85,0.01,23.77c0,0.71,0,1.43,0,2.34c7.64,0,15.11,0,22.8,0c0-3.34,0-6.55,0-9.77c0-5.81-0.04-11.62,0.01-17.43
			c0.02-2.82,2.31-4.36,4.67-3.2c1.43,0.7,1.8,1.95,1.79,3.46c-0.03,8.25-0.02,16.5-0.02,24.74c0,0.71,0,1.41,0,2.22
			c7.68,0,15.11,0,22.8,0c0-0.8,0-1.51,0-2.21c0-7.79,0-15.58,0-23.37c0-0.59-0.02-1.19,0.02-1.78c0.13-2.03,1.37-3.36,3.14-3.39
			c1.94-0.03,3.31,1.17,3.34,3.3c0.1,6.07,0.09,12.14,0.11,18.21c0.01,3.03,0,6.05,0,9.34c3.26,0,6.34,0,9.42,0
			c1.91,0,3.83-0.01,5.74,0.01c2.93,0.03,4.1,1.17,4.11,4.06c0.02,4.88,0,9.76,0,14.94c0.79,0,1.49,0,2.18,0
			c8.25,0,16.51,0.01,24.76,0c1.77,0,3.33,0.38,3.9,2.31c0.71,2.43-0.87,4.3-3.68,4.31c-7,0.02-14,0.01-21,0c-1.97,0-3.94,0-6.04,0
			c0,7.65,0,15.14,0,22.93c0.84,0,1.67,0,2.51,0c8.19-0.01,16.37,0,24.56-0.03c1.86-0.01,3.26,0.64,3.68,2.57
			c0.36,1.68-0.27,3.04-1.85,3.75c-0.69,0.3-1.54,0.3-2.32,0.3c-8.19,0.02-16.37,0.01-24.56,0.01c-0.65,0-1.3,0.06-2.04,0.1
			c0,7.36,0,14.6,0,22.26c1.47,0,2.94,0,4.42,0c7.46-0.02,14.92-0.07,22.38-0.06c2.61,0,3.91,1.04,4.04,3.07
			c0.14,2.16-1.15,3.51-3.54,3.52c-6.21,0.04-12.41,0.02-18.62,0.02c-2.83,0-5.66,0-8.78,0c0,1.19,0,2.21,0,3.24
			c0,3.9,0,7.79,0,11.69c0,3.68-0.9,4.6-4.52,4.61c-4.09,0.01-8.19,0-12.28,0.01c-0.72,0-1.44,0-2.5,0c0,3.7,0,7.24,0,10.77
			c0,5.48,0.03,10.96,0.01,16.44c-0.01,2.21-1.35,3.68-3.25,3.71c-1.95,0.03-3.3-1.34-3.3-3.61c0-7.72,0.08-15.44,0.11-23.16
			c0-1.04,0.01-2.09-0.19-3.1c-0.08-0.4-0.7-1-1.07-1c-7.12-0.06-14.24-0.04-21.68-0.04c0,0.84,0,1.53,0,2.23
			c-0.02,8.32-0.03,16.64-0.06,24.95c-0.01,2.39-1.16,3.73-3.11,3.71c-2.1-0.01-3.28-1.34-3.28-3.81c-0.02-8.52,0-17.03-0.01-25.55
			c0-0.39-0.04-0.78-0.07-1.35c-7.53,0-15,0-22.72,0c0,0.8,0,1.57,0,2.34c0,8.19-0.08,16.38,0.04,24.56
			c0.05,3.26-2.85,4.5-4.87,3.43c-1.39-0.74-1.79-1.96-1.78-3.47c0.03-8.12,0.01-16.24,0.01-24.36c0-0.78,0-1.56,0-2.55
			c-0.85-0.05-1.55-0.12-2.25-0.13c-4.36-0.01-8.72,0.02-13.07-0.01c-2.83-0.02-3.95-1.15-3.95-3.98c-0.01-5.08,0-10.16,0-15.55
			c-0.88,0-1.65,0-2.41,0c-8.12,0-16.24,0.03-24.36-0.04c-1.05-0.01-2.52-0.19-3.06-0.87c-0.7-0.89-1.07-2.43-0.86-3.56
			c0.29-1.57,1.73-2.16,3.36-2.16c8.25,0.02,16.51,0.01,24.76,0.01c0.78,0,1.55,0,2.45,0c0-7.5,0-14.78,0-22.4
			c-4.88,0-9.68-0.01-14.48,0c-4.29,0.01-8.57,0.1-12.86,0.06c-2.26-0.02-3.56-1.38-3.5-3.4c0.06-1.96,1.29-3.15,3.53-3.15
			c8.71-0.03,17.42,0.01,26.13,0.02c0.32,0,0.65,0,1.17,0C88.2,121.15,88.2,113.61,88.2,105.77z M185.54,86.87
			c-30.35,0-60.43,0-90.58,0c0,30.15,0,60.18,0,90.27c30.29,0,60.37,0,90.58,0C185.54,147.03,185.54,117.04,185.54,86.87z"/>
		<path class="st0" d="M185.54,86.87c0,30.17,0,60.16,0,90.27c-30.21,0-60.29,0-90.58,0c0-30.08,0-60.11,0-90.27
			C125.11,86.87,155.19,86.87,185.54,86.87z M125.42,146.77c0-9.91,0-19.69,0-29.55c9.96,0,19.75,0,29.64,0
			c0.04,0.72,0.06,1.3,0.1,1.88c0.16,2.04,1.59,3.46,3.39,3.37c1.79-0.09,3.05-1.45,3.1-3.44c0.04-1.71,0.06-3.43,0-5.15
			c-0.07-2.17-1.18-3.33-3.33-3.33c-12.01-0.03-24.02-0.02-36.03,0.01c-2.3,0.01-3.47,1.13-3.47,3.38
			c-0.04,12.01-0.03,24.02,0,36.03c0.01,2.28,1.18,3.48,3.41,3.48c12.01,0.03,24.01,0.03,36.02,0.01c2.12,0,3.37-1.2,3.4-3.28
			c0.06-3.89,0.05-7.79-0.01-11.68c-0.03-1.83-1.2-3.01-2.9-3.17c-1.99-0.19-3.51,1.17-3.55,3.32c-0.06,2.67-0.01,5.34-0.01,8.12
			C145.02,146.77,135.23,146.77,125.42,146.77z M158.36,132.05c1.94,0.04,3.28-1.24,3.29-3.14c0.01-1.94-1.27-3.26-3.18-3.28
			c-1.95-0.02-3.24,1.22-3.29,3.17C155.12,130.72,156.37,132,158.36,132.05z"/>
		<path d="M125.42,146.77c9.81,0,19.6,0,29.75,0c0-2.78-0.05-5.45,0.01-8.12c0.05-2.15,1.57-3.51,3.55-3.32
			c1.7,0.16,2.87,1.34,2.9,3.17c0.06,3.89,0.07,7.79,0.01,11.68c-0.03,2.08-1.28,3.28-3.4,3.28c-12.01,0.02-24.01,0.02-36.02-0.01
			c-2.22-0.01-3.4-1.2-3.41-3.48c-0.03-12.01-0.03-24.02,0-36.03c0.01-2.25,1.18-3.38,3.47-3.38c12.01-0.03,24.02-0.04,36.03-0.01
			c2.15,0.01,3.26,1.16,3.33,3.33c0.06,1.71,0.05,3.43,0,5.15c-0.05,1.99-1.3,3.35-3.1,3.44c-1.8,0.09-3.23-1.33-3.39-3.37
			c-0.05-0.58-0.06-1.16-0.1-1.88c-9.89,0-19.68,0-29.64,0C125.42,127.08,125.42,136.86,125.42,146.77z"/>
		<path d="M158.36,132.05c-1.99-0.04-3.24-1.32-3.19-3.24c0.06-1.95,1.34-3.19,3.29-3.17c1.91,0.02,3.19,1.34,3.18,3.28
			C161.63,130.81,160.29,132.09,158.36,132.05z"/>
	</g>
	<circle class="st1" cx="140.24" cy="131.84" r="115.3"/>
</g>
<g id="Capa_2" class="st2">
	<rect x="86.72" y="104.24" class="st3" width="97.61" height="97.61"/>
</g>
</svg>
