<?xml version="1.0" encoding="utf-8"?>
<!-- Generator: Adobe Illustrator 24.1.0, SVG Export Plug-In . SVG Version: 6.00 Build 0)  -->
<svg version="1.1" xmlns="http://www.w3.org/2000/svg" xmlns:xlink="http://www.w3.org/1999/xlink" x="0px" y="0px"
	 viewBox="0 0 278.2 263.5" style="enable-background:new 0 0 278.2 263.5;" xml:space="preserve">
<style type="text/css">
	.st0{fill:#FFFFFF;}
	.st1{fill:none;}
	.st2{fill:none;stroke:#FFFFFF;stroke-width:5;stroke-miterlimit:10;}
	.st3{display:none;}
	.st4{display:inline;fill:#FFFFFF;stroke:#000000;stroke-width:3;stroke-miterlimit:10;}
</style>
<g id="Capa_2">
</g>
<g id="Capa_1">
	<g id="Capa_1_1_">
		<g>
			<path class="st0" d="M88.2,105.8c-3.8,0-7.4,0-11,0c-5.3,0-10.6,0-15.8,0c-2.7,0-4-1.2-4-3.3c0-2.1,1.3-3.3,4-3.3
				c8.1,0,16.2,0,24.4,0c0.8,0,1.6,0,2.6,0c0-4.7,0-9.2,0-13.8c0-4.5,0.8-5.2,5.3-5.2c4.6,0,9.1,0,14,0c0-0.9,0-1.7,0-2.4
				c0-7.9,0-15.8,0-23.8c0-1.1,0.2-2.5,0.8-3.3c0.7-0.8,2.2-1.4,3.2-1.2c1,0.2,1.8,1.5,2.4,2.5c0.3,0.5,0.1,1.3,0.1,1.9
				c0,7.9,0,15.8,0,23.8c0,0.7,0,1.4,0,2.3c7.6,0,15.1,0,22.8,0c0-3.3,0-6.6,0-9.8c0-5.8,0-11.6,0-17.4c0-2.8,2.3-4.4,4.7-3.2
				c1.4,0.7,1.8,2,1.8,3.5c0,8.2,0,16.5,0,24.7c0,0.7,0,1.4,0,2.2c7.7,0,15.1,0,22.8,0c0-0.8,0-1.5,0-2.2c0-7.8,0-15.6,0-23.4
				c0-0.6,0-1.2,0-1.8c0.1-2,1.4-3.4,3.1-3.4c1.9,0,3.3,1.2,3.3,3.3c0.1,6.1,0.1,12.1,0.1,18.2c0,3,0,6.1,0,9.3c3.3,0,6.3,0,9.4,0
				c1.9,0,3.8,0,5.7,0c2.9,0,4.1,1.2,4.1,4.1c0,4.9,0,9.8,0,14.9c0.8,0,1.5,0,2.2,0c8.2,0,16.5,0,24.8,0c1.8,0,3.3,0.4,3.9,2.3
				c0.7,2.4-0.9,4.3-3.7,4.3c-7,0-14,0-21,0c-2,0-3.9,0-6,0c0,7.7,0,15.1,0,22.9c0.8,0,1.7,0,2.5,0c8.2,0,16.4,0,24.6,0
				c1.9,0,3.3,0.6,3.7,2.6c0.4,1.7-0.3,3-1.9,3.8c-0.7,0.3-1.5,0.3-2.3,0.3c-8.2,0-16.4,0-24.6,0c-0.6,0-1.3,0.1-2,0.1
				c0,7.4,0,14.6,0,22.3c1.5,0,2.9,0,4.4,0c7.5,0,14.9-0.1,22.4-0.1c2.6,0,3.9,1,4,3.1c0.1,2.2-1.1,3.5-3.5,3.5
				c-6.2,0-12.4,0-18.6,0c-2.8,0-5.7,0-8.8,0c0,1.2,0,2.2,0,3.2c0,3.9,0,7.8,0,11.7c0,3.7-0.9,4.6-4.5,4.6c-4.1,0-8.2,0-12.3,0
				c-0.7,0-1.4,0-2.5,0c0,3.7,0,7.2,0,10.8c0,5.5,0,11,0,16.4c0,2.2-1.4,3.7-3.2,3.7c-1.9,0-3.3-1.3-3.3-3.6
				c0-7.7,0.1-15.4,0.1-23.2c0-1,0-2.1-0.2-3.1c-0.1-0.4-0.7-1-1.1-1c-7.1-0.1-14.2,0-21.7,0c0,0.8,0,1.5,0,2.2
				c0,8.3,0,16.6-0.1,24.9c0,2.4-1.2,3.7-3.1,3.7c-2.1,0-3.3-1.3-3.3-3.8c0-8.5,0-17,0-25.6c0-0.4,0-0.8-0.1-1.4c-7.5,0-15,0-22.7,0
				c0,0.8,0,1.6,0,2.3c0,8.2-0.1,16.4,0,24.6c0.1,3.3-2.8,4.5-4.9,3.4c-1.4-0.7-1.8-2-1.8-3.5c0-8.1,0-16.2,0-24.4
				c0-0.8,0-1.6,0-2.6c-0.8-0.1-1.6-0.1-2.2-0.1c-4.4,0-8.7,0-13.1,0c-2.8,0-3.9-1.1-3.9-4c0-5.1,0-10.2,0-15.6c-0.9,0-1.7,0-2.4,0
				c-8.1,0-16.2,0-24.4,0c-1,0-2.5-0.2-3.1-0.9c-0.7-0.9-1.1-2.4-0.9-3.6c0.3-1.6,1.7-2.2,3.4-2.2c8.3,0,16.5,0,24.8,0
				c0.8,0,1.6,0,2.4,0c0-7.5,0-14.8,0-22.4c-4.9,0-9.7,0-14.5,0c-4.3,0-8.6,0.1-12.9,0.1c-2.3,0-3.6-1.4-3.5-3.4
				c0.1-2,1.3-3.1,3.5-3.1c8.7,0,17.4,0,26.1,0c0.3,0,0.7,0,1.2,0C88.2,121.2,88.2,113.6,88.2,105.8z M185.5,86.9
				c-30.4,0-60.4,0-90.6,0c0,30.2,0,60.2,0,90.3c30.3,0,60.4,0,90.6,0C185.5,147,185.5,117,185.5,86.9z"/>
			<path class="st1" d="M185.5,86.9c0,30.2,0,60.2,0,90.3c-30.2,0-60.3,0-90.6,0c0-30.1,0-60.1,0-90.3
				C125.1,86.9,155.2,86.9,185.5,86.9z M125.4,146.8c0-9.9,0-19.7,0-29.6c10,0,19.8,0,29.6,0c0,0.7,0.1,1.3,0.1,1.9
				c0.2,2,1.6,3.5,3.4,3.4c1.8-0.1,3.1-1.4,3.1-3.4c0-1.7,0.1-3.4,0-5.2c-0.1-2.2-1.2-3.3-3.3-3.3c-12,0-24,0-36,0
				c-2.3,0-3.5,1.1-3.5,3.4c0,12,0,24,0,36c0,2.3,1.2,3.5,3.4,3.5c12,0,24,0,36,0c2.1,0,3.4-1.2,3.4-3.3c0.1-3.9,0.1-7.8,0-11.7
				c0-1.8-1.2-3-2.9-3.2c-2-0.2-3.5,1.2-3.6,3.3c-0.1,2.7,0,5.3,0,8.1C145,146.8,135.2,146.8,125.4,146.8z M158.4,132.1
				c1.9,0,3.3-1.2,3.3-3.1c0-1.9-1.3-3.3-3.2-3.3c-1.9,0-3.2,1.2-3.3,3.2C155.1,130.7,156.4,132,158.4,132.1z"/>
			<path class="st0" d="M125.4,146.8c9.8,0,19.6,0,29.8,0c0-2.8-0.1-5.4,0-8.1c0.1-2.1,1.6-3.5,3.6-3.3c1.7,0.2,2.9,1.3,2.9,3.2
				c0.1,3.9,0.1,7.8,0,11.7c0,2.1-1.3,3.3-3.4,3.3c-12,0-24,0-36,0c-2.2,0-3.4-1.2-3.4-3.5c0-12,0-24,0-36c0-2.2,1.2-3.4,3.5-3.4
				c12,0,24,0,36,0c2.1,0,3.3,1.2,3.3,3.3c0.1,1.7,0.1,3.4,0,5.2c-0.1,2-1.3,3.3-3.1,3.4c-1.8,0.1-3.2-1.3-3.4-3.4
				c-0.1-0.6-0.1-1.2-0.1-1.9c-9.9,0-19.7,0-29.6,0C125.4,127.1,125.4,136.9,125.4,146.8z"/>
			<path class="st0" d="M158.4,132.1c-2,0-3.2-1.3-3.2-3.2c0.1-1.9,1.3-3.2,3.3-3.2c1.9,0,3.2,1.3,3.2,3.3
				C161.6,130.8,160.3,132.1,158.4,132.1z"/>
		</g>
		<circle class="st2" cx="140.2" cy="131.8" r="115.3"/>
	</g>
	<g id="Capa_2_1_" class="st3">
		<rect x="86.7" y="104.2" class="st4" width="97.6" height="97.6"/>
	</g>
</g>
</svg>
