<svg xmlns="http://www.w3.org/2000/svg" version="1.0" width="1160.000000" height="1280.000000" preserveAspectRatio="xMidYMid meet" style=""><rect id="backgroundrect" width="100%" height="100%" x="0" y="0" fill="none" stroke="none"/>
<metadata>
Created by potrace 1.15, written by Peter Selinger 2001-2017
</metadata>

<g class="currentLayer" style=""><title>Layer 1</title><g transform="translate(0,1280) scale(0.10000000149011612,-0.10000000149011612) " fill="#ffffff" stroke="none" id="svg_1" class="selected" fill-opacity="1">
<path d="M5117.1428565979,12055.285714149475 l0,-740 l-82,-48 l-83,-49 l-3,-124 l-3,-124 l68,-68 l67,-68 l126,0 l126,0 l67,-68 l67,-68 l0,-199 l0,-200 l-87,-87 c-85,-86 -87,-88 -87,-137 c-1,-43 -6,-56 -32,-82 c-82,-81 -204,-27 -204,92 c0,33 6,47 34,75 c28,28 41,34 78,34 c24,0 53,-6 64,-14 c19,-13 25,-9 97,61 l77,76 l0,181 l0,182 l-53,52 l-53,52 l-125,0 l-124,0 l-83,83 l-83,83 l3,149 l3,149 l83,49 l82,49 l0,719 l0,719 l-57,0 c-32,0 -68,-3 -80,-6 l-23,-6 l0,-662 l0,-662 l-55,-54 l-55,-54 l0,-211 l0,-210 l148,-148 l149,-149 l34,21 c52,32 102,28 144,-11 c106,-98 -7,-259 -135,-193 c-38,20 -60,52 -60,90 c0,26 -24,54 -165,195 l-165,165 l0,240 l0,241 l50,49 l50,49 l0,653 c0,637 0,653 -19,653 c-54,0 -51,35 -51,-579 l0,-567 l-40,-39 l-40,-39 l0,-336 l0,-335 l125,-125 l125,-125 l0,-412 l0,-411 l88,-51 c78,-45 92,-49 120,-42 c84,25 169,-59 148,-144 c-18,-71 -104,-111 -170,-80 c-50,24 -70,65 -63,129 l5,51 l-89,50 l-89,50 l0,415 l0,415 l-130,130 l-130,130 l0,355 l0,356 l45,44 l45,44 l0,554 l0,553 l-57,-6 c-32,-3 -68,-8 -80,-11 l-23,-4 l0,-928 c0,-510 -3,-937 -6,-949 c-8,-29 63,-104 161,-171 c122,-84 147,-157 81,-230 c-31,-34 -39,-37 -86,-37 c-47,0 -55,3 -86,37 c-25,28 -34,47 -34,73 c0,43 21,88 52,110 c23,16 23,16 3,27 c-11,6 -49,39 -83,75 l-64,64 l7,297 c4,163 4,597 0,963 c-7,608 -9,666 -24,663 c-9,-2 -37,-6 -63,-9 l-48,-6 l0,-456 l0,-456 l50,-87 l50,-87 l0,-590 l0,-589 l139,-134 c76,-74 154,-147 172,-162 c31,-24 34,-31 34,-81 c0,-45 -5,-60 -24,-81 c-78,-83 -211,-32 -211,81 c0,38 5,50 36,81 l35,35 l-120,121 l-121,121 l0,595 l0,594 l-50,88 l-50,88 l0,456 l0,455 l-47,-6 c-27,-4 -64,-10 -83,-14 l-35,-7 l-3,-511 l-2,-511 l41,5 c72,10 139,-46 139,-117 c0,-36 -28,-85 -59,-103 c-53,-31 -136,-14 -162,35 c-9,16 -11,178 -10,605 c2,575 2,583 -18,583 c-35,0 -400,-76 -460,-96 c-10,-3 -1,-19 32,-52 l47,-48 l0,-354 l0,-355 l345,-345 l345,-345 l0,-345 l0,-345 l45,-75 l45,-75 l0,-179 l0,-178 l80,-83 l81,-82 l60,1 c58,1 62,-1 95,-36 c42,-46 46,-97 11,-149 c-60,-90 -200,-58 -214,49 c-5,34 -20,54 -114,148 l-109,109 l0,182 l0,183 l-50,88 l-50,88 l0,335 l0,334 l-340,340 l-340,340 l0,350 l0,349 l-56,57 l-56,56 l-71,-20 c-40,-11 -74,-22 -76,-24 c-3,-2 30,-38 72,-81 l77,-77 l0,-340 l0,-339 l345,-346 l345,-345 l0,-340 l0,-339 l85,-87 c81,-83 85,-88 85,-132 c0,-82 -74,-141 -149,-119 c-78,24 -113,107 -73,175 l20,35 l-39,38 l-39,38 l0,346 l0,345 l-345,345 l-345,345 l0,335 l0,335 l-84,84 l-84,83 l-96,-32 c-53,-17 -99,-36 -102,-42 c-4,-6 68,-85 160,-177 l166,-166 l0,-230 l0,-230 l155,-155 l155,-155 l0,-62 l0,-63 l33,0 c44,0 77,-19 104,-59 c55,-82 -4,-181 -107,-181 c-35,0 -48,6 -77,35 c-33,33 -35,37 -28,87 c3,29 8,91 11,138 l5,85 l-156,155 l-155,155 l0,232 l0,233 l-169,169 l-168,170 l-32,-12 c-17,-6 -31,-14 -31,-17 c0,-3 79,-84 175,-180 l175,-175 l0,-210 l0,-210 l150,-150 l150,-150 l0,-185 l0,-185 l59,-32 c56,-31 66,-33 158,-33 l98,0 l87,-87 l88,-88 l0,-585 l0,-584 l57,-58 l57,-58 l891,0 l890,0 l77,78 l77,77 l-11,40 c-9,34 -8,47 7,78 c45,95 180,89 221,-10 c38,-89 -57,-189 -146,-155 c-23,9 -33,2 -116,-79 l-91,-89 l-909,0 l-910,0 l-72,73 l-72,72 l0,585 l0,586 l-73,72 l-72,72 l-95,0 l-95,1 l-80,47 l-80,48 l-3,190 l-2,190 l-145,144 l-145,145 l0,215 l0,215 l-178,178 c-133,133 -182,176 -195,171 c-9,-3 -17,-7 -17,-9 c0,-1 72,-74 160,-162 l160,-160 l0,-249 l0,-249 l144,-144 l145,-145 l0,-140 l-1,-141 l141,-136 l140,-135 l60,4 c58,4 62,3 96,-31 c29,-29 35,-42 35,-76 c0,-57 -22,-95 -66,-116 c-47,-22 -98,-13 -135,24 c-34,35 -45,73 -32,116 l11,33 l-154,147 l-154,147 l0,146 l0,147 l-145,145 l-145,145 l0,245 l0,245 l-158,158 c-155,155 -159,158 -187,147 l-29,-11 l172,-172 l172,-172 l0,-240 l0,-240 l145,-145 l145,-145 l0,-145 l0,-145 l120,-120 l120,-120 l0,-390 l0,-389 l66,-67 l66,-66 l36,12 c46,16 89,4 125,-35 c50,-55 31,-152 -37,-184 c-42,-20 -57,-20 -101,-2 c-50,21 -77,70 -70,126 l5,45 l-75,75 l-75,74 l0,390 l0,390 l-120,121 l-120,122 l0,149 l0,149 l-145,145 l-145,145 l0,235 l0,235 l-168,168 l-168,168 l-53,-22 l-52,-22 l160,-161 l161,-161 l0,-260 l0,-260 l150,-150 l150,-150 l0,-237 c0,-131 4,-238 8,-238 c4,0 16,14 26,31 c38,64 132,74 187,20 c77,-78 23,-201 -89,-201 c-45,0 -84,26 -107,71 c-12,22 -23,29 -45,29 l-30,0 l0,248 l0,247 l-155,155 l-155,155 l0,260 l0,260 l-154,154 c-142,142 -156,153 -182,147 c-26,-7 -22,-12 144,-180 l172,-172 l0,-316 l0,-316 l33,-6 c81,-15 122,-117 75,-186 c-66,-97 -218,-54 -218,62 c0,38 26,98 42,98 c4,0 8,145 8,323 l0,322 l-163,163 c-89,89 -169,162 -177,162 c-8,0 -25,-8 -38,-18 l-22,-17 l120,-120 l120,-120 l0,-420 l0,-421 l68,-67 l68,-67 l197,0 l197,0 l0,-257 l0,-258 l71,-71 l70,-71 l38,10 c80,22 162,-57 146,-140 c-21,-115 -175,-135 -229,-29 c-17,33 -18,45 -8,80 l11,41 l-74,75 l-75,75 l-2,245 l-3,245 l-185,3 l-185,2 l-82,83 l-83,82 l0,425 l0,425 l-115,115 c-112,111 -115,114 -140,100 l-26,-14 l116,-116 l115,-115 l0,-425 l0,-425 l180,-173 l180,-174 l0,-429 l0,-429 l34,-14 c63,-26 90,-98 61,-159 c-55,-117 -229,-77 -227,52 c1,46 21,82 57,101 l25,13 l0,416 l0,416 l-185,185 l-185,185 l0,420 l0,420 l-110,110 l-109,109 l-36,-19 c-19,-11 -35,-22 -35,-25 c0,-3 45,-50 100,-105 l100,-100 l0,-430 l0,-430 l110,-110 l110,-110 l0,-596 l0,-597 l90,-51 l90,-51 l173,0 l172,0 l79,79 l79,79 l-16,35 c-21,43 -21,58 -3,102 c17,40 68,75 111,75 c43,0 94,-35 111,-75 c18,-44 18,-59 -2,-101 c-20,-41 -63,-66 -113,-66 c-32,1 -46,-9 -127,-89 l-91,-91 l-200,2 l-201,1 l-101,57 l-100,57 l-1,600 l0,600 l-110,110 l-110,110 l0,430 l0,430 l-104,104 c-69,69 -106,99 -111,91 c-5,-8 26,-45 84,-104 l91,-91 l0,-435 l0,-435 l90,-90 c50,-49 90,-95 90,-102 c0,-7 9,-27 20,-45 c50,-82 -7,-188 -100,-188 c-62,0 -120,58 -120,120 c0,59 50,120 100,120 c11,0 20,2 20,4 c0,3 -34,38 -75,78 l-75,73 l0,440 l0,440 l-90,90 c-98,97 -93,96 -160,45 l-25,-19 l93,-93 l92,-93 l0,-645 l0,-645 l78,-78 l78,-78 l39,17 c78,32 154,-17 163,-105 c4,-47 2,-53 -30,-85 c-60,-60 -116,-60 -175,-1 c-31,31 -34,40 -32,80 c3,45 2,46 -89,138 l-92,92 l0,645 l0,645 l-85,85 c-81,81 -85,83 -111,71 l-27,-12 l36,-37 l37,-38 l0,-254 l0,-254 l31,-32 c84,-87 21,-215 -100,-201 c-62,7 -101,50 -101,110 c1,23 6,52 14,65 c15,28 64,62 89,62 c16,0 17,18 17,238 l0,238 l-33,32 l-34,33 l-71,-56 l-72,-56 l0,-327 l0,-327 l151,-150 c83,-83 157,-162 165,-177 c43,-81 -15,-178 -106,-178 c-123,0 -167,170 -58,226 l31,16 l-116,116 l-117,117 l-2,318 l-3,319 l-87,-77 l-88,-77 l0,-119 c0,-110 1,-118 21,-124 c28,-9 59,-63 59,-103 c0,-124 -161,-168 -224,-62 c-34,59 -8,144 53,170 l31,12 l0,82 l-1,81 l-94,-97 l-95,-97 l0,-118 l0,-119 l33,-32 l33,-32 l155,0 l155,0 l52,-89 l52,-90 l0,-158 l0,-158 l76,-76 c74,-75 77,-76 118,-72 c79,9 136,-42 136,-123 c0,-52 -62,-114 -114,-114 c-76,0 -126,50 -126,128 c0,21 5,43 12,50 c10,10 -6,31 -75,100 l-87,87 l0,165 l0,164 l-40,68 l-41,68 l-152,0 l-153,0 l-47,48 l-47,48 l0,88 c0,88 0,89 -20,71 c-18,-17 -20,-31 -20,-174 l0,-157 l63,-62 c50,-50 69,-62 95,-62 c25,0 35,6 46,29 c22,41 58,61 112,61 c39,0 51,-5 80,-34 c28,-28 34,-42 34,-76 c0,-53 -25,-95 -68,-116 c-45,-21 -97,-13 -132,21 c-21,20 -36,25 -81,25 l-54,0 l-88,88 l-87,87 l0,120 l-1,120 l-29,-35 l-30,-34 l0,-141 l0,-140 l189,-189 l189,-188 l36,12 c110,36 205,-100 131,-188 c-72,-86 -199,-51 -212,60 c-5,40 -17,55 -209,248 l-203,205 l-3,100 l-3,100 l-68,-105 l-67,-105 l0,-85 l0,-86 l70,-69 c62,-62 74,-69 112,-71 c87,-5 137,-107 91,-185 c-17,-29 -67,-59 -97,-59 c-83,0 -152,103 -115,172 c9,17 1,30 -71,104 c-60,61 -81,89 -76,101 c5,15 3,14 -10,-2 c-17,-21 -134,-259 -134,-273 c0,-4 53,-60 118,-125 l118,-118 l200,5 c109,3 223,7 252,8 c49,3 56,0 83,-30 c24,-27 29,-41 29,-83 c0,-42 -5,-55 -29,-79 c-16,-16 -40,-32 -55,-36 c-38,-9 -90,3 -111,26 c-17,19 -31,20 -230,20 l-211,0 l-119,120 c-65,66 -119,119 -120,118 c-19,-28 -155,-466 -155,-500 c0,-17 12,-18 203,-18 l202,0 l84,-84 l84,-84 l39,20 c49,26 96,18 137,-22 c96,-96 -10,-253 -132,-195 c-45,21 -69,58 -71,107 c-1,35 -9,47 -87,124 l-87,84 l-193,-2 l-194,-3 l-11,-35 c-11,-33 -55,-274 -69,-370 l-6,-45 l90,89 l89,88 l-5,58 c-4,44 -1,63 12,84 c38,57 109,72 166,33 c113,-76 55,-228 -82,-215 l-47,5 l-117,-117 l-116,-116 l-10,-103 c-6,-57 -8,-106 -4,-109 c4,-4 64,53 134,126 l127,132 l102,0 l102,0 l0,-272 l0,-272 l-35,-36 c-32,-33 -35,-40 -25,-64 c15,-41 12,-78 -9,-110 c-26,-40 -57,-55 -110,-56 c-36,0 -49,6 -77,34 c-29,29 -34,41 -34,80 c0,84 56,133 138,122 c39,-5 47,-3 73,23 l29,29 l0,231 l0,231 l-66,0 l-67,0 l-142,-137 c-110,-107 -144,-146 -150,-173 c-10,-44 1,-585 12,-605 c7,-12 20,-4 63,40 l54,55 l196,0 l195,0 l88,88 c65,66 87,94 87,114 c0,36 44,85 89,99 c71,21 151,-40 151,-116 c0,-44 -35,-94 -78,-112 c-34,-14 -41,-14 -82,0 l-45,16 l-90,-89 l-90,-90 l-196,0 l-195,0 l-32,-33 l-32,-33 l0,-291 c0,-253 3,-304 20,-389 c31,-149 26,-142 71,-98 c44,43 48,64 19,101 c-39,49 -18,138 40,168 c38,19 100,19 128,-1 c30,-21 52,-66 52,-108 c0,-41 -46,-100 -85,-110 c-15,-4 -25,-14 -25,-24 c0,-10 -33,-51 -74,-91 c-41,-41 -73,-79 -71,-85 c2,-6 11,-37 20,-70 c16,-56 17,-58 31,-37 c36,51 107,64 162,31 c72,-44 76,-139 10,-195 c-28,-24 -39,-27 -85,-23 c-29,3 -53,2 -53,-1 c0,-3 5,-23 11,-43 l10,-38 l72,0 l73,0 l47,48 l47,48 l0,410 l0,410 l-71,72 l-71,72 l-47,-6 c-86,-11 -141,35 -141,118 c0,69 37,109 107,115 c47,5 54,3 88,-29 c32,-29 38,-42 42,-85 c5,-48 10,-55 89,-134 l84,-84 l0,-450 l0,-451 l-68,-67 l-68,-67 l-77,0 c-42,0 -77,-4 -77,-10 c0,-21 24,-60 37,-60 c28,0 73,-31 88,-60 c21,-40 19,-89 -5,-128 l-21,-33 l22,-60 l22,-59 l66,0 l66,0 l81,-81 c72,-72 84,-80 102,-70 c79,42 185,-43 167,-135 c-15,-83 -129,-123 -194,-69 c-38,33 -56,85 -43,124 c9,27 6,33 -62,100 c-66,66 -75,71 -114,71 c-23,0 -42,-4 -42,-9 c0,-21 152,-306 228,-428 c70,-112 87,-133 117,-143 c52,-17 85,-62 85,-116 c0,-37 8,-56 42,-105 l42,-59 l43,42 l43,42 l0,101 l0,102 l-37,24 c-102,65 -57,219 63,219 c37,0 51,-6 82,-34 c32,-30 37,-40 37,-79 c0,-51 -25,-94 -68,-115 c-27,-13 -27,-14 -27,-125 l0,-113 l-50,-53 c-27,-29 -50,-56 -50,-60 c1,-3 29,-46 64,-96 l63,-90 l839,-3 l839,-2 l82,-82 l83,-83 l0,-484 l0,-484 l25,-44 l26,-43 l1922,0 l1923,0 l59,-60 l59,-60 l436,0 l435,0 l143,143 l142,142 l0,155 l0,155 l172,173 l173,172 l410,0 l410,0 l90,-90 l90,-90 l182,0 l183,0 l67,-70 l67,-70 l141,0 l140,0 l80,-80 c65,-65 83,-78 102,-74 c56,15 126,-33 144,-98 c9,-34 7,-49 -6,-85 c-41,-108 -190,-112 -239,-8 c-17,36 -17,51 0,125 c5,22 -4,35 -55,83 l-60,57 l-138,0 l-137,0 l-67,66 l-66,66 l-183,-2 l-182,-1 l-97,96 l-97,95 l-375,0 l-374,0 l-143,-143 l-142,-142 l0,-160 l0,-160 l-173,-173 l-172,-172 l-465,0 l-466,0 l-59,60 l-59,60 l-1931,0 l-1931,0 l-42,74 l-42,74 l0,484 l0,484 l-53,52 l-53,52 l-796,0 l-797,0 l64,-100 l63,-101 l648,1 l648,0 l58,-57 l58,-57 l0,-421 l0,-420 l133,-133 l132,-132 l1907,0 l1906,0 l70,-40 l69,-40 l499,0 l499,0 l218,218 l217,217 l0,150 l0,150 l143,143 l142,142 l320,0 l320,0 l85,-85 l85,-85 l150,0 l150,0 l79,-79 c75,-75 80,-79 116,-74 c125,17 192,-146 96,-234 c-97,-89 -244,9 -209,139 l12,43 l-57,57 l-56,58 l-154,0 l-155,0 l-86,85 l-87,85 l-288,0 l-288,0 l-119,-111 l-119,-112 l0,-156 l0,-156 l-238,-238 l-237,-237 l-535,0 l-535,0 l-69,40 l-68,40 l-1912,0 l-1911,0 l-158,158 l-157,157 l0,421 l0,420 l-33,32 l-32,31 l-590,1 c-325,0 -595,-3 -601,-8 c-8,-5 3,-33 33,-87 c59,-104 137,-275 180,-395 c19,-52 36,-97 39,-99 c2,-2 13,4 25,15 c16,14 36,19 84,19 c54,0 67,-4 90,-25 c43,-40 58,-77 52,-134 c-4,-42 -10,-55 -45,-88 c-38,-35 -46,-38 -99,-38 l-58,0 l3,-140 l3,-140 l422,0 l422,0 l140,-140 l140,-140 l1840,0 l1840,0 l103,-60 l104,-60 l464,0 l464,0 l0,-360 l0,-360 l-790,0 l-790,0 l-50,31 l-50,30 l-2,212 l-3,212 l-537,3 l-538,2 l0,-245 l0,-245 l-358,0 l-357,0 l-180,180 l-180,180 l-1045,0 l-1046,0 l-37,-38 c-30,-31 -39,-48 -44,-91 l-6,-52 l35,35 c44,44 93,54 153,31 c116,-44 127,-199 19,-263 c-70,-41 -154,-18 -197,56 l-22,37 l-12,-90 c-7,-50 -26,-190 -44,-313 l-31,-222 l31,-29 c55,-51 66,-117 30,-181 c-11,-20 -34,-45 -50,-54 l-29,-17 l0,-242 l0,-241 l-66,-67 c-63,-64 -66,-69 -80,-140 c-7,-41 -16,-83 -19,-95 c-4,-19 13,-30 147,-93 l151,-73 l24,31 c32,41 73,61 123,61 c52,0 92,-21 122,-62 c18,-27 23,-45 22,-94 c-2,-58 0,-61 27,-71 l29,-11 l0,167 l0,167 l-70,69 l-71,70 l-53,-3 c-63,-4 -104,13 -136,58 c-43,60 -35,142 18,192 c75,71 198,46 238,-49 c19,-44 18,-77 -5,-122 l-20,-38 l79,-78 l80,-79 l2,-189 l3,-189 l33,-13 l32,-14 l0,367 l0,367 l-128,128 c-123,123 -129,128 -156,117 c-93,-35 -197,34 -198,132 c-2,119 124,191 225,130 c59,-37 84,-123 55,-187 c-11,-25 -7,-31 125,-163 l137,-137 l0,-388 l0,-388 l23,-8 c12,-5 25,-7 29,-4 c5,2 8,106 8,231 l0,227 l132,132 l133,133 l56,0 c53,0 60,3 96,39 c49,50 96,60 158,36 c116,-44 127,-200 19,-262 c-21,-13 -51,-23 -66,-23 c-65,0 -132,50 -149,112 c-9,36 -12,38 -52,38 c-41,0 -47,-5 -160,-118 l-117,-117 l0,-228 l0,-227 l26,-10 c14,-6 30,-10 35,-10 c5,0 9,59 9,137 l0,138 l117,117 l118,118 l190,0 l191,0 l63,64 c62,62 63,64 53,99 c-15,53 1,106 42,144 c45,41 93,51 151,28 c56,-21 87,-63 92,-124 c5,-60 -20,-109 -72,-138 c-47,-27 -82,-29 -132,-8 l-37,16 l-71,-71 l-70,-70 l-191,0 l-190,0 l-97,-97 l-97,-98 l0,-142 c0,-136 1,-143 20,-143 c11,0 20,6 20,13 c0,7 38,50 84,96 c83,83 84,84 74,119 c-20,73 41,163 120,177 c51,8 115,-18 144,-57 c45,-64 29,-165 -33,-211 c-41,-29 -111,-34 -152,-9 l-35,20 l-78,-79 c-49,-49 -75,-82 -69,-88 c6,-5 45,-20 89,-34 c63,-19 85,-22 111,-14 c44,13 98,2 134,-28 c22,-20 40,-25 80,-25 l51,0 l0,92 l0,92 l60,61 c58,59 59,61 51,98 c-12,52 4,105 45,143 c93,88 244,19 244,-112 c0,-104 -119,-176 -212,-128 l-31,16 l-53,-53 l-54,-53 l0,-78 l0,-78 l53,0 l52,0 l153,153 l152,152 l0,177 l0,176 l68,66 l69,66 l-5,54 c-7,87 43,152 127,163 c49,7 115,-26 141,-70 c44,-71 15,-172 -60,-209 c-46,-23 -87,-23 -135,2 l-40,20 l-53,-53 l-54,-54 l2,-178 l1,-179 l-143,-143 l-143,-143 l80,0 l80,0 l127,127 l128,127 l-27,28 c-37,39 -44,128 -13,176 c21,33 87,72 125,72 c38,0 104,-38 125,-72 c57,-94 -13,-228 -120,-228 c-32,0 -47,-12 -150,-115 l-115,-115 l73,0 c60,0 78,4 103,23 c43,31 125,31 168,0 c25,-19 43,-23 101,-23 l70,0 l1,858 c0,471 2,866 4,876 c2,11 77,93 167,183 l163,163 l380,0 l381,0 l54,-55 l54,-55 l1221,0 l1220,0 l148,148 c140,140 147,149 147,187 c0,49 29,98 72,126 c26,16 45,19 87,16 c48,-3 58,-8 93,-45 c34,-37 38,-47 38,-93 c0,-94 -59,-153 -151,-151 l-45,1 l-165,-165 l-164,-164 l-1280,0 l-1281,0 l-53,55 l-53,55 l-322,0 l-321,0 l-128,-128 l-127,-127 l0,-843 l0,-842 l35,0 l35,0 l0,803 l0,802 l123,123 l122,122 l300,0 l300,0 l113,-113 l112,-112 l0,-57 c0,-57 0,-58 41,-78 c30,-16 46,-33 61,-67 c27,-61 18,-105 -32,-155 c-33,-34 -43,-38 -86,-38 c-94,0 -150,61 -142,152 c6,54 43,104 85,114 c20,5 23,13 23,53 c0,45 -2,48 -98,144 l-97,97 l-284,0 l-284,0 l-103,-103 l-104,-103 l0,-792 l0,-792 l55,0 l55,0 l0,787 l0,787 l57,58 l57,58 l231,0 c126,0 250,-5 275,-11 c112,-26 153,-154 74,-233 c-76,-75 -205,-39 -231,64 l-9,35 l-139,3 c-118,2 -140,0 -156,-14 c-18,-16 -19,-49 -19,-776 l0,-758 l50,0 c36,0 59,7 86,25 c25,17 50,25 79,25 c29,0 54,-8 79,-25 c24,-16 51,-25 76,-25 l40,0 l0,62 l0,62 l-66,67 c-63,63 -68,66 -98,58 c-47,-14 -94,0 -131,37 c-60,60 -56,145 11,204 c28,24 44,30 82,30 c108,0 176,-105 128,-199 c-15,-27 -14,-28 60,-102 l74,-73 l0,-73 l0,-73 l50,0 c28,0 50,4 50,8 c0,18 61,42 108,42 c39,0 57,-6 80,-25 c24,-20 41,-25 86,-25 l56,0 l0,83 l0,83 l-64,63 l-64,64 l-28,-22 c-35,-28 -105,-28 -149,-1 c-64,39 -83,129 -42,191 c30,45 82,71 130,65 c75,-9 121,-60 123,-139 c2,-47 5,-53 73,-121 l71,-71 l0,-98 l0,-97 l64,0 c48,0 74,6 101,21 c42,25 123,23 153,-5 c11,-9 35,-16 58,-16 l39,0 l-310,310 l-310,310 l-165,0 l-164,0 l-62,61 l-61,61 l-42,-13 c-87,-26 -170,30 -179,120 c-16,167 222,210 270,49 c8,-29 8,-48 0,-76 c-12,-37 -11,-37 45,-94 l57,-58 l166,0 l165,0 l335,-335 c279,-280 339,-335 362,-335 c24,0 28,4 28,28 c0,22 -57,85 -338,365 l-338,337 l-101,-1 c-106,-1 -124,4 -162,44 c-28,31 -39,104 -21,147 c22,53 64,80 125,80 c46,0 60,-5 89,-30 c52,-46 65,-99 40,-164 c-5,-12 0,-16 22,-16 c25,0 83,-54 387,-358 c342,-342 357,-359 357,-395 c0,-34 2,-37 30,-37 c30,0 30,0 30,58 l0,57 l-365,365 l-365,365 l0,55 c0,55 -1,56 -63,118 l-63,62 l-203,0 l-204,0 l-51,51 c-49,49 -53,51 -108,53 c-52,1 -61,4 -95,39 c-35,35 -38,41 -38,97 c0,55 3,62 36,96 c112,112 293,-20 220,-161 l-21,-39 l42,-43 l42,-43 l206,0 l206,0 l73,-74 c74,-74 74,-74 74,-129 l-1,-54 l364,-364 l364,-364 l0,-72 l0,-73 l30,0 l30,0 l0,78 l0,77 l-280,280 c-154,154 -280,285 -280,292 c0,7 -11,15 -25,19 c-30,7 -82,65 -91,99 c-31,124 120,222 220,144 c79,-62 71,-193 -14,-231 c-17,-7 -30,-15 -30,-18 c0,-3 124,-129 275,-280 l275,-275 l0,-92 l0,-93 l30,0 l30,0 l0,88 l0,87 l-220,220 l-220,220 l0,245 l0,246 l-70,69 c-65,65 -71,68 -95,57 c-14,-7 -46,-12 -70,-12 c-83,0 -148,89 -125,170 c32,110 164,140 240,53 c31,-35 32,-40 27,-99 l-5,-62 l74,-73 l74,-73 l0,-246 l0,-245 l220,-220 l220,-220 l0,-102 l0,-103 l68,0 c48,0 79,6 107,20 c49,25 81,25 130,0 c46,-23 145,-28 145,-7 c0,7 -24,36 -53,65 l-53,52 l-69,0 l-69,0 l-238,237 l-238,237 l0,73 c0,61 -3,73 -18,77 c-64,21 -101,121 -68,185 c54,104 214,87 245,-26 c17,-59 -15,-131 -68,-153 c-30,-12 -31,-15 -31,-74 l0,-61 l218,-218 l217,-217 l70,0 l71,0 l72,-73 c46,-46 72,-80 72,-95 c0,-18 6,-22 30,-22 c27,0 30,3 30,33 c0,29 -28,60 -280,312 l-280,280 l0,220 l0,220 l-87,87 l-88,87 l-40,-11 c-61,-16 -113,-3 -156,41 c-65,65 -65,157 0,222 c60,60 149,65 212,12 c57,-49 73,-118 43,-192 l-16,-40 l91,-87 l91,-86 l0,-222 l0,-221 l280,-280 l280,-280 l0,-47 l0,-48 l35,0 l35,0 l0,113 c0,110 -1,114 -24,125 c-38,17 -78,77 -83,126 c-7,55 17,108 65,144 c47,35 135,38 179,6 c93,-69 99,-185 14,-257 c-17,-14 -44,-28 -61,-32 l-30,-7 l0,-109 l0,-109 l74,0 c41,0 81,3 90,6 c14,5 16,36 16,243 l0,236 l-64,68 l-65,67 l-128,0 l-128,0 l-163,163 l-162,162 l0,132 l0,133 l-33,14 c-103,43 -128,177 -48,257 c112,113 296,12 267,-146 c-8,-43 -50,-94 -93,-111 l-33,-14 l0,-129 l0,-128 l144,-141 l145,-142 l128,0 l128,0 l83,-83 l82,-82 l0,-238 c0,-130 1,-237 3,-237 c13,0 114,33 120,40 c5,4 14,43 21,86 l13,79 l-34,36 c-34,36 -35,37 -34,130 l0,94 l-131,132 c-116,116 -134,131 -151,121 c-36,-19 -114,-12 -152,13 c-39,27 -75,90 -75,134 c0,44 38,112 74,135 c49,29 130,28 177,-4 c63,-43 88,-135 54,-200 l-16,-30 l136,-136 l135,-135 l0,-96 c0,-70 4,-100 14,-108 c21,-17 46,136 46,279 l0,115 l-42,20 c-108,51 -111,207 -6,261 c29,15 99,16 147,3 c9,-3 18,8 24,29 c8,26 7,36 -8,52 c-17,18 -31,20 -189,20 l-170,0 l-62,61 c-56,56 -63,60 -84,49 c-33,-18 -121,-8 -157,18 c-90,64 -79,217 20,269 c45,23 118,20 161,-6 c38,-24 76,-91 76,-134 c0,-15 -7,-44 -15,-64 l-16,-37 l48,-48 l47,-48 l170,0 c144,0 172,-3 188,-17 c10,-9 20,-14 21,-12 c2,2 16,40 31,84 c50,142 101,242 182,352 l16,23 l-63,0 l-64,0 l-62,-61 c-62,-60 -62,-61 -46,-86 c21,-32 21,-99 0,-140 c-38,-73 -155,-99 -217,-47 c-84,72 -79,187 12,245 c27,17 44,19 94,15 l61,-5 l69,70 l68,69 l177,0 c163,0 177,-1 194,-20 c14,-15 31,-20 69,-20 l51,0 l-6,182 c-4,101 -10,451 -14,778 l-7,595 l191,190 l191,190 l0,165 l0,165 l98,98 l97,97 l240,0 l241,0 l73,-74 c69,-70 75,-74 110,-69 c114,15 193,-112 128,-208 c-75,-112 -237,-58 -237,78 c0,21 7,49 16,62 c16,22 15,24 -47,87 l-63,64 l-221,0 l-220,0 l-83,-83 l-82,-82 l0,-165 l0,-165 l-189,-190 l-189,-190 l10,-740 c11,-722 11,-741 31,-763 c14,-15 32,-22 55,-22 l35,0 l-21,23 l-22,23 l0,735 l0,734 l185,185 l185,185 l0,160 l0,161 l63,62 l63,62 l136,0 l136,0 l72,-41 l71,-41 l-2,-80 c-2,-74 0,-80 26,-108 l29,-30 l600,0 l601,1 l36,52 c20,29 75,95 121,147 c47,53 90,105 96,117 c21,39 14,96 -18,146 l-30,47 l-313,0 l-312,0 l-80,80 l-80,80 l-210,0 l-210,0 l-173,173 l-172,172 l0,95 l0,95 l-115,115 l-115,115 l0,496 l0,497 l-40,40 c-36,35 -40,45 -40,88 c0,112 96,176 189,126 c47,-25 73,-76 68,-129 c-6,-57 -31,-92 -78,-112 l-39,-16 l0,-485 l0,-485 l115,-115 l115,-115 l0,-95 l0,-95 l153,-153 l154,-154 l209,2 l209,1 l76,-81 l77,-80 l278,0 l278,0 l-34,35 l-34,35 l-216,0 l-215,0 l-90,90 l-90,90 l-160,0 l-160,0 l-76,76 l-76,76 l-41,-12 c-35,-11 -45,-10 -78,6 c-118,58 -106,221 17,254 c84,23 159,-42 159,-136 c0,-48 2,-52 68,-117 l68,-67 l159,0 l160,0 l85,-85 l85,-85 l176,0 c164,0 177,1 182,19 c2,10 28,37 57,60 l52,41 l-193,0 l-194,0 l-101,101 c-97,97 -102,101 -114,80 c-6,-12 -26,-31 -43,-41 c-110,-68 -242,63 -182,180 c25,48 62,70 118,70 l51,0 l151,-150 l151,-150 l233,0 c260,0 240,-5 281,73 l20,37 l-146,0 c-144,0 -146,0 -166,-25 c-11,-14 -33,-32 -48,-40 c-109,-56 -232,76 -172,185 c52,95 183,95 232,0 l20,-40 l145,0 c166,0 164,-2 124,91 l-21,49 l-61,0 c-44,0 -66,5 -80,17 c-18,17 -67,18 -676,21 l-656,2 l-82,82 l-83,83 l0,890 l0,891 l-72,71 c-57,55 -82,72 -112,78 c-82,14 -122,95 -86,171 c37,76 130,92 190,32 c38,-37 47,-86 26,-129 l-17,-33 l81,-81 l80,-80 l0,-895 l0,-896 l59,-52 l60,-52 l640,0 c634,0 640,0 676,-21 c20,-12 38,-20 40,-17 c2,2 -10,25 -28,51 c-31,45 -34,46 -83,47 c-41,0 -55,5 -74,25 l-24,25 l-21,-20 c-53,-49 -143,-44 -189,10 c-87,104 13,262 139,220 c38,-12 85,-62 85,-89 c0,-23 75,-95 89,-86 c25,15 -33,202 -76,247 c-26,27 -31,28 -123,28 l-95,0 l-145,-145 c-80,-80 -150,-145 -156,-145 c-7,0 -15,-7 -18,-16 c-3,-8 -26,-24 -51,-35 c-56,-25 -111,-14 -149,31 c-81,97 0,247 120,224 c35,-6 86,-46 96,-74 c4,-11 43,22 135,113 l128,127 l127,0 c125,0 126,0 132,24 c3,13 9,31 12,40 c5,14 -12,16 -158,16 l-163,0 l-90,-90 l-90,-90 l-185,0 l-186,0 l-64,-65 c-63,-63 -64,-65 -61,-114 c4,-81 -35,-132 -110,-146 c-70,-12 -149,60 -149,135 c0,49 35,100 84,124 c38,19 41,19 89,2 l50,-18 l71,71 l71,71 l190,0 l190,0 l85,85 l85,85 l200,0 c158,1 204,4 219,15 c19,14 83,37 139,49 c19,5 27,13 27,27 c0,27 59,86 94,95 c16,4 45,2 65,-5 l36,-11 l253,253 c138,138 252,257 252,264 c0,6 -5,24 -10,39 l-11,28 l-172,-172 l-172,-172 l-100,0 l-100,0 l-145,-145 l-145,-145 l-287,0 l-288,0 l0,-37 c0,-107 -121,-167 -204,-102 c-84,66 -69,185 28,233 c38,19 42,19 87,3 c39,-14 91,-17 335,-17 l289,0 l145,145 l145,145 l100,0 l100,0 l173,173 l173,174 l-17,36 c-10,20 -20,37 -23,37 c-4,0 -76,-70 -161,-155 l-155,-155 l-119,0 l-120,0 l-166,-165 l-166,-165 l-150,0 l-150,0 l-59,60 l-59,60 l-260,0 l-260,0 l-38,37 c-38,37 -38,37 -67,20 c-87,-51 -201,16 -201,118 c0,60 57,124 117,132 c79,11 143,-49 143,-134 c0,-42 5,-53 33,-81 l33,-32 l260,0 l260,0 l59,-60 l59,-60 l136,0 l135,0 l160,160 l160,160 l115,0 l115,0 l159,159 l158,158 l-16,32 c-9,17 -20,31 -24,31 c-4,0 -81,-74 -172,-165 l-165,-165 l-210,0 l-211,0 l-33,-34 l-33,-34 l20,-30 c31,-43 37,-100 15,-142 c-72,-139 -274,-83 -260,73 c6,72 67,127 139,127 c27,0 43,10 83,50 l49,50 l211,0 l210,0 l164,164 l163,163 l-23,36 c-13,20 -26,37 -29,37 c-3,0 -79,-74 -170,-165 l-165,-165 l-254,0 l-255,0 l-146,-145 l-147,-145 l-149,0 l-149,0 l-175,176 c-96,96 -192,184 -213,195 c-42,22 -77,71 -77,107 c0,38 30,92 61,107 c15,8 46,15 68,15 c98,0 152,-127 84,-202 c-16,-18 -12,-24 127,-163 l145,-145 l125,0 l125,0 l140,140 l140,140 l255,0 l255,0 l163,163 l162,162 l-27,38 l-27,38 l-151,-151 l-152,-151 l-268,1 l-268,1 l-131,-130 l-131,-131 l-121,0 l-120,0 l-77,73 l-77,72 l0,246 l0,245 l-29,28 l-30,29 l-31,-27 c-58,-49 -131,-47 -174,4 c-50,60 -46,120 10,169 c28,25 44,31 80,31 c39,0 51,-5 80,-34 c19,-19 34,-40 34,-48 c0,-7 27,-40 60,-73 l60,-59 l0,-246 l0,-246 l53,-52 l53,-52 l107,0 l107,0 l127,130 l126,130 l271,0 l271,0 l144,144 l144,144 l-19,26 c-11,14 -21,26 -24,26 c-3,0 -61,-56 -130,-125 l-125,-125 l-325,0 l-326,0 l-38,-39 c-33,-34 -37,-42 -31,-74 c8,-43 -15,-98 -53,-123 c-34,-22 -100,-22 -134,0 c-34,22 -60,86 -51,126 c9,45 57,89 106,97 c33,5 55,19 103,65 l61,58 l319,0 l319,0 l117,117 l117,117 l-21,29 l-21,29 l-111,-111 l-111,-111 l-374,0 c-366,0 -375,0 -418,22 c-80,40 -107,103 -73,173 c30,62 92,83 159,55 c36,-15 57,-45 66,-94 l7,-36 l297,0 l296,0 l94,94 c95,96 97,99 63,139 c-14,16 -22,11 -112,-78 l-97,-95 l-219,0 l-219,0 l-165,165 l-165,165 l-325,0 l-326,0 l-49,-50 l-49,-50 l-161,0 l-161,0 l-57,58 l-57,58 l0,174 l0,175 l93,93 l94,93 l-20,40 c-17,35 -18,46 -8,79 c36,119 196,120 232,1 c22,-73 -40,-151 -121,-151 c-31,0 -46,-11 -123,-88 l-87,-87 l0,-155 l0,-154 l42,-43 l42,-43 l131,0 l131,0 l54,55 l54,55 l346,0 l345,0 l165,-165 l165,-165 l200,0 l200,0 l89,89 l88,88 l-25,28 l-24,29 l-84,-87 l-83,-87 l-160,0 l-160,0 l-176,175 l-176,175 l-421,0 l-421,0 l-20,-34 c-54,-91 -197,-59 -218,49 c-15,81 74,160 151,135 c36,-12 85,-61 85,-86 c0,-12 66,-14 438,-14 l437,0 l170,-170 l170,-170 l140,0 l140,0 l78,78 c72,72 76,79 63,97 c-14,19 -18,17 -93,-57 l-78,-78 l-110,0 l-110,0 l-83,83 l-82,82 l0,116 l0,115 l-48,47 l-48,47 l-174,0 l-175,0 l-87,87 c-86,86 -87,86 -117,73 c-60,-25 -126,1 -157,62 c-18,35 -18,62 2,104 c20,42 59,64 115,64 c34,0 47,-6 76,-35 c31,-31 34,-39 32,-85 l-3,-51 l79,-79 l80,-80 l175,0 l176,0 l67,-68 l67,-68 l0,-115 l0,-115 l68,-67 l68,-67 l80,0 l80,0 l73,74 l74,74 l-49,63 l-49,62 l-5,-44 c-8,-59 -23,-83 -64,-103 c-42,-20 -57,-20 -101,-2 c-40,17 -75,68 -75,109 c0,77 78,138 150,117 c17,-5 30,-6 30,-3 c0,2 -16,25 -36,49 c-34,42 -39,44 -88,44 l-51,0 l-120,120 c-66,66 -125,120 -132,120 c-7,0 -19,-13 -28,-30 c-41,-79 -169,-79 -210,0 c-25,49 -19,96 18,135 c56,62 149,55 191,-15 c11,-19 25,-30 39,-30 c15,0 63,-40 147,-125 c107,-107 150,-142 150,-120 c0,3 -48,67 -107,143 c-60,75 -139,179 -177,230 l-68,92 l-502,0 l-501,0 l-250,250 l-250,250 l-80,0 l-80,0 l-222,-222 l-223,-223 l0,-267 l0,-268 l95,0 l95,0 l0,-265 l0,-264 l-92,-3 l-93,-3 l-3,-313 c-1,-173 1,-312 5,-310 c73,37 88,40 128,27 c24,-9 48,-27 62,-48 c81,-121 -87,-252 -187,-146 c-20,22 -32,25 -87,25 l-63,0 l0,385 l0,385 l-185,0 l-185,0 l0,-447 l0,-448 l108,-112 l108,-113 l455,0 l455,0 l67,-68 l67,-68 l0,-497 l0,-497 l-70,0 l-71,0 l3,-92 l3,-93 l117,-81 l118,-82 l40,20 c128,64 247,-100 154,-212 c-53,-62 -151,-59 -201,7 c-22,29 -27,45 -27,89 l1,53 l-128,87 l-129,88 l0,108 l0,108 l-70,0 l-70,0 l-2,237 l-3,237 l-105,28 l-105,28 l-102,-102 l-103,-103 l0,-605 l0,-605 l-145,-145 l-145,-145 l0,-127 l0,-128 l-90,0 l-90,0 l0,168 l0,167 l85,85 c47,47 85,87 85,90 c0,3 -35,5 -77,5 l-78,0 l-3,246 l-2,246 l-66,18 l-66,18 l-134,-134 l-134,-134 l0,-305 l0,-306 l-58,-57 l-58,-57 l-1912,0 l-1912,0 l0,471 l0,472 l-102,103 l-102,104 l-698,0 l-698,0 l0,510 l0,510 l26,0 l26,0 l-5,103 c-3,56 -9,117 -12,135 c-10,47 18,116 63,150 c49,37 140,39 191,3 c57,-41 74,-96 79,-253 l4,-138 l39,0 c37,0 38,-1 43,-42 c3,-24 7,-175 10,-336 c2,-162 7,-296 11,-300 c3,-3 87,75 185,173 l180,180 l0,865 l0,865 l150,150 l150,150 l0,87 l0,88 l-275,0 l-275,0 l0,90 l0,90 l-220,0 l-219,0 l-35,31 c-43,37 -54,81 -32,132 c28,68 51,74 253,69 l178,-4 l55,56 l54,56 l1077,0 l1077,0 l11,31 c6,18 11,38 11,45 c0,17 -138,95 -178,100 c-92,12 -139,104 -92,181 c32,54 63,63 207,63 l128,0 l98,-98 l97,-97 l0,-108 l0,-107 l55,0 l55,0 l0,-275 l0,-275 l-271,0 c-149,0 -269,-3 -267,-7 c2,-5 10,-20 17,-35 l14,-28 l314,0 l313,0 l0,347 l0,348 l83,-83 l82,-82 l682,0 l681,0 l107,63 l106,62 l-325,3 l-326,2 l0,65 l0,65 l-165,0 l-165,0 l0,115 l0,115 l127,0 l128,0 l72,72 l73,72 l0,136 l0,135 l150,150 l150,150 l0,110 l0,110 l-165,165 l-165,165 l0,1376 l0,1376 l-46,7 c-26,3 -69,6 -95,6 l-49,0 l0,-581 l0,-582 l60,-104 l60,-105 l0,-561 l0,-562 l-82,-82 l-81,-82 l-1,-55 c-1,-63 -26,-98 -83,-116 c-47,-16 -87,-4 -123,36 c-58,67 -30,166 56,194 c19,7 38,9 42,6 c3,-4 41,28 84,71 l78,78 l0,521 l0,522 l-60,104 l-60,103 l0,601 l0,601 l-57,6 c-31,3 -60,4 -65,1 c-4,-3 -8,-323 -8,-711 l0,-706 l40,-72 c30,-55 40,-83 40,-119 c0,-35 4,-46 15,-46 c29,0 75,-30 90,-60 c56,-108 -57,-221 -165,-165 c-73,38 -79,168 -10,205 c35,19 27,83 -20,161 l-40,67 l0,726 l0,726 l-50,0 l-50,0 l0,-938 l0,-938 l148,-147 c82,-81 154,-147 160,-147 c19,0 52,-62 52,-98 c0,-94 -107,-153 -184,-103 c-38,25 -55,57 -56,101 c0,42 30,96 60,105 c20,6 8,21 -109,139 l-131,133 l0,946 l0,947 l-55,0 l-55,0 l0,-727 l0,-727 l-42,-43 l-42,-43 l14,-52 c8,-35 24,-62 46,-83 c85,-81 34,-205 -84,-205 c-37,0 -50,6 -78,34 c-28,28 -34,42 -34,75 c0,57 22,95 65,116 c30,14 36,21 31,38 c-4,12 -9,40 -12,62 c-5,37 -2,43 35,80 l41,39 l0,718 l0,718 l-50,0 l-50,0 l0,-739 zm-833,-2375 c43,-47 46,-109 7,-155 c-77,-91 -224,-31 -211,87 c12,108 132,147 204,68 zm1454,21 c62,-42 76,-108 36,-168 c-44,-66 -139,-70 -191,-8 c-48,56 -28,151 38,183 c44,22 78,20 117,-7 zm-3426,-989 c86,-79 34,-208 -83,-208 c-115,0 -159,153 -63,217 c51,34 103,31 146,-9 zm500,2 c81,-76 30,-210 -80,-210 c-80,0 -140,80 -115,154 c11,33 41,68 70,79 c31,13 101,-1 125,-23 zm440,20 c48,-18 75,-58 75,-110 c0,-111 -120,-165 -200,-90 c-58,54 -47,148 22,190 c37,22 64,25 103,10 zm541,-21 c80,-75 27,-209 -82,-209 c-79,0 -139,80 -114,154 c11,33 41,68 70,79 c31,13 101,-1 126,-24 zm-2387,-25 c30,-33 33,-40 29,-85 c-11,-115 -139,-155 -213,-68 c-48,58 -22,159 49,190 c42,18 99,3 135,-37 zm7262,-441 c64,-38 75,-130 23,-184 c-49,-51 -124,-51 -175,1 c-25,24 -29,37 -29,80 c0,46 4,56 34,86 c28,28 42,34 76,34 c23,0 55,-8 71,-17 zm-7264,-39 c64,-40 71,-135 14,-186 c-57,-51 -112,-49 -168,7 c-28,28 -33,40 -33,78 c0,98 103,153 187,101 zm7256,-431 c30,-15 57,-66 57,-105 c0,-35 -36,-87 -74,-104 c-65,-32 -136,0 -160,70 c-23,67 12,136 78,155 c34,10 56,6 99,-16 zm-6807,-12 c79,-36 94,-148 28,-200 c-103,-81 -244,27 -188,144 c12,26 30,43 58,56 c50,23 52,23 102,0 zm-456,-6 c16,-9 36,-29 45,-45 c43,-84 -13,-180 -105,-180 c-92,0 -148,96 -105,180 c29,55 105,76 165,45 zm472,-524 c40,-22 64,-88 48,-135 c-21,-65 -89,-98 -155,-76 c-103,34 -110,176 -11,221 c44,19 72,17 118,-10 zm-472,4 c16,-9 36,-29 45,-45 c43,-84 -13,-180 -105,-180 c-92,0 -148,96 -105,180 c29,55 105,76 165,45 zm7270,-464 c14,-10 31,-36 39,-58 c29,-81 -27,-156 -114,-156 c-38,0 -52,5 -76,29 c-40,40 -50,81 -33,129 c27,79 116,106 184,56 zm497,4 c14,-9 31,-33 40,-52 c50,-122 -103,-225 -196,-132 c-104,104 32,265 156,184 zm-8260,-500 c33,-22 56,-80 48,-121 c-3,-18 -19,-46 -35,-62 c-50,-51 -120,-50 -170,0 c-104,103 34,264 157,183 zm953,-1907 c51,-27 80,-74 80,-131 c0,-137 -167,-196 -259,-92 c-26,30 -31,44 -31,86 c0,58 19,100 57,127 c52,37 94,40 153,10 zm630,-1 c124,-66 96,-251 -42,-273 c-50,-9 -81,1 -123,37 c-102,90 -39,252 101,258 c11,1 40,-9 64,-22 zm8,-497 c91,-55 96,-172 12,-244 c-25,-21 -42,-26 -83,-26 c-67,0 -112,27 -137,83 c-24,52 -24,66 -4,117 c33,82 136,116 212,70 zm5690,-960 c34,-21 72,-87 72,-125 c0,-38 -38,-104 -72,-125 c-72,-44 -173,-15 -210,60 c-66,130 85,266 210,190 zm-2438,-448 c107,-53 107,-207 0,-263 c-96,-51 -210,20 -210,131 c0,81 67,150 145,150 c17,0 46,-8 65,-18 zm-3370,-21 c107,-56 107,-210 0,-263 c-98,-50 -210,21 -210,132 c0,79 68,150 145,150 c17,0 46,-8 65,-19 zm467,0 c105,-48 109,-200 7,-258 c-62,-36 -122,-27 -177,25 c-74,71 -45,202 53,241 c38,15 71,13 117,-8 zm502,-8 c47,-36 66,-71 66,-123 c0,-75 -55,-137 -132,-147 c-80,-11 -163,65 -163,148 c0,111 142,186 229,122 zm441,8 c107,-56 107,-206 0,-262 c-96,-52 -210,19 -210,131 c0,112 114,183 210,131 zm1440,1 c50,-25 80,-75 80,-132 c0,-57 -30,-107 -80,-132 c-98,-50 -210,21 -210,132 c0,110 113,181 210,132 zm-3360,-494 c158,-82 57,-325 -112,-269 c-158,52 -120,283 47,290 c12,1 41,-9 65,-21 zm507,2 c110,-49 112,-208 3,-262 c-97,-49 -210,21 -210,129 c0,53 20,94 57,121 c51,36 92,39 150,12 zm470,-1 c152,-74 74,-306 -92,-275 c-114,22 -160,170 -77,249 c51,49 105,57 169,26 zm502,-6 c67,-51 86,-117 52,-186 c-53,-109 -199,-115 -258,-11 c-28,49 -29,86 -2,140 c37,78 141,106 208,57 zm448,-464 c72,-27 113,-105 93,-178 c-13,-48 -66,-98 -115,-107 c-49,-9 -119,19 -147,59 c-32,44 -32,129 -1,173 c39,55 108,77 170,53 z" id="svg_2" fill="#ffffff" fill-opacity="1"/>
<path d="M6197.1428565979,11407.285714149475 l0,-1338 l165,-165 l165,-165 l0,-175 l0,-175 l-150,-150 l-150,-150 l0,-102 l0,-103 l543,0 l542,0 l93,-93 l92,-92 l0,-388 l0,-387 l185,0 l185,0 l0,298 l0,297 l263,263 l262,262 l140,0 l140,0 l250,-250 l250,-250 l423,0 c416,0 423,0 412,19 c-8,15 -5,32 10,70 l20,51 l-338,0 l-337,0 l-165,165 c-91,91 -171,165 -178,165 c-8,0 -29,15 -47,33 c-56,56 -58,111 -7,168 c50,56 146,48 188,-16 c18,-28 21,-94 5,-123 c-8,-16 9,-38 122,-150 l132,-132 l327,0 c199,0 329,4 333,10 c3,5 12,49 19,97 c15,103 9,118 -40,108 c-39,-7 -90,12 -119,45 c-30,34 -28,120 4,154 c34,36 83,51 123,37 c17,-6 32,-11 33,-11 c4,0 -14,100 -20,110 c-3,6 -51,10 -108,10 l-102,0 l-98,-98 c-89,-89 -97,-101 -97,-136 c0,-30 -7,-45 -34,-72 c-29,-29 -41,-34 -80,-34 c-84,0 -147,85 -116,159 c29,72 110,101 173,63 l35,-20 l93,94 l94,94 l117,0 l118,0 l-6,28 c-3,15 -7,32 -9,38 c-2,6 -19,14 -39,18 c-73,14 -119,83 -101,153 c3,15 22,42 41,60 c30,28 35,38 29,63 l-7,30 l-77,0 l-76,0 l-78,-78 c-68,-68 -77,-82 -77,-114 c0,-68 -74,-124 -144,-111 c-38,8 -84,57 -92,100 c-9,49 19,101 68,128 c32,17 42,18 80,8 l43,-12 l80,80 l80,79 l83,0 c97,0 94,-21 25,168 l-45,122 l-57,0 l-56,0 l-271,-272 c-225,-227 -273,-280 -282,-314 c-27,-95 -135,-129 -202,-63 c-56,56 -46,148 22,189 c39,24 73,25 112,4 l30,-15 l281,281 l280,280 l53,0 l52,0 l-77,154 l-77,154 l-17,-38 c-30,-67 -111,-90 -176,-50 c-45,27 -56,54 -50,115 l5,52 l-94,94 l-94,94 l0,180 l-1,180 l-49,55 l-49,55 l-1,-185 l0,-185 l-120,-120 l-120,-120 l0,-179 l0,-180 l-347,-347 c-345,-345 -347,-348 -345,-386 c9,-114 -138,-171 -212,-82 c-40,47 -36,108 8,157 c33,35 38,37 95,37 l61,0 l325,325 l325,325 l0,180 l0,180 l125,125 l125,125 l0,210 l0,211 l-50,49 l-50,49 l0,-250 l0,-249 l-150,-150 c-141,-141 -150,-152 -150,-188 c0,-24 7,-46 20,-59 c86,-93 -34,-243 -148,-184 c-84,44 -80,180 7,216 c28,11 31,17 31,54 c0,40 5,46 155,196 l155,155 l0,266 l0,266 l-25,23 l-25,23 l0,-194 l0,-195 l-74,-73 c-70,-70 -74,-75 -64,-103 c35,-100 -76,-193 -172,-143 c-42,22 -60,53 -60,105 c0,72 49,120 122,120 c28,0 44,11 96,63 l62,63 l0,219 l0,220 l-83,66 c-109,88 -221,169 -234,169 c-5,0 -19,-10 -31,-23 l-22,-23 l0,-554 l0,-555 l-87,-87 c-82,-83 -86,-88 -75,-113 c27,-58 6,-127 -48,-159 c-77,-45 -180,15 -180,104 c0,64 52,120 112,120 c16,0 51,28 111,88 l87,87 l0,555 l0,554 l31,32 l30,31 l-49,32 c-27,17 -53,31 -58,31 c-5,0 -38,-28 -72,-63 l-62,-63 l0,-394 l0,-395 l33,-18 c112,-61 73,-227 -53,-227 c-68,0 -120,53 -120,122 c0,34 32,98 50,98 c7,0 10,145 10,428 l0,428 l65,64 c36,35 65,67 65,70 c0,3 -25,20 -56,39 l-56,34 l-79,-79 l-79,-79 l0,-850 l0,-849 l71,-72 c70,-71 74,-73 120,-72 c82,2 136,-56 126,-135 c-14,-104 -137,-140 -207,-60 c-29,32 -32,41 -28,84 l5,47 l-89,89 l-88,88 l0,880 l0,880 l80,80 c44,44 80,83 80,88 c0,5 -46,30 -102,57 l-103,49 l-52,-52 l-53,-51 l0,-541 l0,-542 l25,-23 c50,-47 40,-145 -19,-181 c-18,-11 -49,-19 -74,-19 c-37,0 -50,6 -78,34 c-28,28 -34,41 -34,77 c0,54 30,106 65,115 l25,6 l0,551 l0,551 l56,57 l56,56 l-87,37 c-48,20 -92,36 -99,36 c-6,0 -35,-24 -64,-53 l-52,-53 l0,-684 l0,-685 l156,-155 c190,-189 220,-241 179,-320 c-39,-75 -160,-79 -209,-8 c-32,46 -12,144 35,169 c20,10 14,19 -110,143 l-131,131 l0,725 l0,724 l51,52 l51,52 l-58,22 c-32,12 -71,24 -86,27 l-28,6 l0,-829 l0,-829 l85,-90 l84,-90 l1,-197 l0,-196 l89,-51 c48,-28 100,-51 115,-51 c68,0 124,-68 112,-138 c-12,-77 -105,-124 -174,-88 c-45,23 -66,68 -59,131 l5,51 l-84,48 l-84,48 l0,205 l0,206 l-85,86 l-85,87 l0,862 l0,862 l-27,11 c-16,6 -40,13 -55,16 l-28,6 l0,-863 l0,-863 l65,-112 l65,-112 l0,-249 l0,-250 l213,-212 c150,-149 220,-212 235,-212 c50,0 102,-59 102,-115 c0,-59 -63,-125 -118,-125 c-38,0 -92,30 -107,61 c-20,37 -19,99 1,127 c15,22 10,27 -195,230 l-211,207 l0,254 l0,254 l-65,113 l-65,113 l0,891 c0,883 0,890 -20,890 c-20,0 -20,-7 -20,-1168 l0,-1168 l-75,-74 c-74,-74 -75,-75 -75,-126 c0,-43 -5,-57 -28,-82 c-96,-102 -256,6 -197,132 c22,46 63,68 121,65 c42,-3 47,0 109,61 l65,64 l0,1162 l0,1162 l-44,11 c-25,6 -47,11 -50,11 c-3,0 -6,-350 -6,-777 c1,-668 3,-781 15,-797 c8,-11 15,-40 15,-64 c0,-37 -6,-50 -34,-78 c-28,-28 -42,-34 -75,-34 c-106,0 -163,92 -111,178 c20,32 20,51 20,821 l0,788 l-37,7 c-21,3 -48,6 -60,6 l-23,0 l0,-938 l0,-937 l88,-88 c74,-74 92,-87 120,-87 c73,0 122,-50 122,-126 c0,-39 -5,-51 -34,-80 c-28,-28 -42,-34 -76,-34 c-79,0 -139,63 -127,135 c5,30 -2,39 -99,136 l-104,104 l0,967 c0,532 -3,969 -7,971 c-5,3 -32,8 -60,12 l-53,7 l0,-1339 zm521,-2176 c97,-65 51,-217 -67,-217 c-36,0 -51,6 -80,33 c-48,43 -56,97 -22,147 c43,63 109,78 169,37 zm488,9 c41,-22 61,-59 61,-112 c0,-39 -5,-51 -34,-80 c-28,-28 -42,-34 -75,-34 c-85,0 -138,56 -128,133 c11,84 101,131 176,93 zm465,0 c54,-22 79,-63 73,-119 c-10,-113 -138,-153 -212,-66 c-50,60 -25,152 49,185 c40,17 49,17 90,0 zm516,-1 c55,-28 79,-123 44,-173 c-20,-29 -66,-52 -104,-52 c-100,0 -157,115 -93,190 c42,51 98,63 153,35 z" id="svg_3" fill="#ffffff" fill-opacity="1"/>
<path d="M9317.1428565979,10964.285714149475 l0,-105 l84,-84 c79,-79 86,-83 130,-85 c25,-1 46,0 46,3 c0,8 -206,312 -234,346 l-25,30 l-1,-105 z" id="svg_4" fill="#ffffff" fill-opacity="1"/>
<path d="M11402.1428565979,6013.285714149475 l-210,-212 l99,52 c149,79 206,122 269,204 c32,42 64,132 55,157 c-1,5 -98,-85 -213,-201 z" id="svg_5" fill="#ffffff" fill-opacity="1"/>
<path d="M8904.1428565979,3826.285714149475 l-47,-48 l0,-159 l0,-160 l-185,-185 l-185,-185 l0,-705 l0,-706 l38,-37 c33,-33 44,-37 87,-37 l49,0 l-62,63 l-62,63 l0,554 l0,555 l106,106 l106,107 l-12,37 c-17,53 -7,111 26,146 c59,62 136,59 194,-7 c58,-66 33,-172 -50,-209 c-32,-15 -47,-16 -74,-8 c-34,10 -34,10 -140,-96 l-106,-106 l0,-525 l0,-525 l78,-78 l77,-77 l65,0 l65,0 l-93,93 l-92,92 l0,460 l0,460 l338,338 l337,337 l578,0 c317,0 577,3 577,8 c0,4 3,17 6,30 l6,22 l-613,0 l-613,0 l-67,66 l-67,67 l-44,-22 c-52,-25 -67,-26 -113,-7 c-45,19 -75,69 -75,124 c0,57 25,98 75,122 c90,43 185,-23 185,-129 c0,-35 7,-48 61,-106 l61,-65 l608,0 l608,0 l10,28 c5,15 13,35 17,45 c7,16 -25,17 -591,17 l-598,0 l-43,42 l-43,42 l0,77 l0,77 l-44,26 c-41,24 -53,26 -168,26 l-124,0 l-47,-48 z" id="svg_6" fill="#ffffff" fill-opacity="1"/>
<path d="M9060.1428565979,3011.285714149475 l-323,-323 l0,-435 l0,-434 l108,-108 l107,-107 l68,0 l67,0 l0,239 l0,240 l35,60 l35,59 l0,304 l0,303 l168,168 l167,167 l544,0 l543,0 l-6,23 c-3,12 -6,25 -6,30 c0,4 -249,7 -553,7 l-552,0 l-243,-243 l-242,-242 l0,-136 l0,-135 l36,-17 c70,-34 92,-139 43,-201 c-74,-95 -209,-59 -234,61 c-10,49 25,118 69,140 l36,17 l0,145 l0,146 l263,263 l262,262 l543,0 c587,0 560,-3 532,51 c-10,18 -27,19 -578,19 l-567,0 l-322,-323 z" id="svg_7" fill="#ffffff" fill-opacity="1"/>
<path d="M9359.1428565979,2931.285714149475 l-152,-152 l0,-299 l0,-299 l-35,-63 l-35,-63 l2,-223 l3,-223 l30,0 l30,0 l3,241 l2,240 l45,44 l45,44 l0,146 l1,145 l74,43 l75,42 l437,0 l437,0 l66,-65 c63,-63 66,-65 99,-55 c55,15 116,-17 142,-75 c26,-58 17,-108 -26,-152 c-42,-42 -92,-51 -141,-27 c-71,35 -101,112 -70,175 l16,33 l-57,58 l-57,58 l-409,0 l-409,0 l-64,-36 l-64,-36 l0,-142 l0,-142 l-45,-44 l-45,-45 l2,-225 c3,-256 -4,-238 96,-225 l54,7 l-41,42 l-41,42 l0,154 l0,155 l91,91 l91,91 l-21,34 c-25,41 -27,107 -6,149 c31,59 130,82 183,43 c106,-77 64,-233 -66,-250 c-34,-5 -53,-19 -127,-93 l-87,-88 l1,-133 l2,-134 l52,-52 l51,-53 l100,0 l100,0 l-34,35 c-23,24 -43,35 -62,35 c-38,0 -81,23 -107,56 c-16,20 -21,41 -21,82 c0,50 3,58 39,93 c33,33 45,39 82,39 c115,0 177,-124 111,-218 l-21,-29 l47,-46 c45,-45 50,-47 104,-47 c31,0 59,4 62,8 c3,5 -22,35 -54,67 l-60,59 l0,186 l0,186 l75,55 l74,54 l-6,51 c-16,140 135,213 226,108 c25,-28 31,-44 31,-80 c0,-25 -7,-58 -14,-73 c-30,-56 -101,-82 -160,-57 l-37,15 l-69,-52 l-70,-52 l6,-160 l6,-160 l66,-67 l67,-66 l80,27 c44,15 107,39 139,54 l59,27 l-23,25 c-31,33 -43,32 -63,-10 c-32,-66 -113,-93 -178,-60 c-92,48 -90,193 2,241 c67,34 167,-5 183,-72 c5,-18 13,-24 33,-24 c17,0 40,-13 63,-35 l36,-35 l37,25 c20,14 37,31 37,36 c0,6 8,27 17,46 c19,40 66,73 105,73 c31,0 83,55 158,167 c56,84 90,167 97,241 l6,54 l-164,164 l-164,164 l-140,0 l-140,-1 l-17,-37 c-10,-21 -32,-46 -49,-56 c-40,-24 -105,-23 -138,2 c-33,23 -61,78 -61,117 c0,60 71,135 128,135 c42,0 92,-28 113,-65 l21,-35 l151,0 l152,0 l153,-152 l154,-153 l-7,60 c-9,76 -35,181 -82,323 l-36,112 l-411,0 l-411,0 l-79,-79 c-72,-73 -77,-80 -66,-101 c7,-14 10,-44 7,-73 c-4,-42 -10,-56 -41,-84 c-30,-28 -43,-33 -86,-33 c-43,0 -56,5 -87,33 c-31,29 -37,41 -40,88 c-4,45 -1,60 19,89 c31,46 94,70 140,52 c33,-12 33,-12 118,73 l85,85 l413,0 c405,0 412,0 412,20 c0,20 -7,20 -548,20 l-547,0 l-153,-153 z" id="svg_8" fill="#ffffff" fill-opacity="1"/>
<path d="M1445.1428565979004,934.2857141494751 c-3,-16 -1,-30 4,-30 c4,0 8,14 8,30 c0,17 -2,30 -4,30 c-2,0 -6,-13 -8,-30 z" id="svg_9" fill="#ffffff" fill-opacity="1"/>
<path d="M1317.1428565979004,252.2857141494751 c-24,-117 -45,-223 -48,-235 l-4,-23 l623,1 l624,0 l-165,58 c-323,114 -565,213 -844,345 c-76,36 -140,66 -141,66 c-1,0 -21,-96 -45,-212 z" id="svg_10" fill="#ffffff" fill-opacity="1"/>
</g></g></svg>